<svg width="20" height="20" viewBox="0 0 20 20" fill="none" xmlns="http://www.w3.org/2000/svg">
<path d="M11.9925 15.0124C12.3499 16.3461 11.5584 17.7169 10.2248 18.0743C8.89112 18.4317 7.52028 17.6402 7.16292 16.3065M9.07633 4.78416C9.32983 4.32808 9.41334 3.77683 9.26762 3.233C8.96983 2.12161 7.82746 1.46206 6.71607 1.75986C5.60468 2.05765 4.94514 3.20002 5.24293 4.31141C5.38865 4.85524 5.73659 5.29088 6.18418 5.55911M13.53 7.87119C13.2325 6.76108 12.4384 5.83278 11.3224 5.29051C10.2063 4.74823 8.8597 4.6364 7.5788 4.97961C6.2979 5.32283 5.18763 6.09298 4.49223 7.12063C3.79683 8.14829 3.57327 9.34927 3.87072 10.4594C4.36287 12.2961 4.2673 13.7614 3.95651 14.8749C3.60229 16.1439 3.42518 16.7784 3.47302 16.9058C3.52777 17.0516 3.56737 17.0916 3.71256 17.1479C3.83947 17.1971 4.37261 17.0542 5.4389 16.7685L15.3265 14.1191C16.3927 13.8334 16.9259 13.6906 17.0112 13.5845C17.1088 13.4632 17.1231 13.4088 17.0976 13.2551C17.0754 13.1209 16.6047 12.6599 15.6634 11.738C14.8375 10.9291 14.0221 9.70791 13.53 7.87119Z" stroke="#044752" stroke-width="1.5" stroke-linecap="round" stroke-linejoin="round"/>
</svg>
