<svg width="20" height="20" viewBox="0 0 20 20" fill="none" xmlns="http://www.w3.org/2000/svg">
<path d="M7.69653 5.71992V3.71492C7.69653 3.30892 8.02584 2.97961 8.43184 2.97961H11.5681C11.9741 2.97961 12.3035 3.30892 12.3035 3.71492V5.71992" stroke="#044752" stroke-width="1.5" stroke-linecap="round" stroke-linejoin="round"/>
<path d="M5.39307 9.48477V7.19215C5.39307 6.37931 6.05167 5.7207 6.86451 5.7207H13.1363C13.9491 5.7207 14.6077 6.37931 14.6077 7.19215V9.48477" stroke="#044752" stroke-width="1.5" stroke-linecap="round" stroke-linejoin="round"/>
<path d="M9.99985 1.66321V2.97959" stroke="#044752" stroke-width="1.5" stroke-linecap="round" stroke-linejoin="round"/>
<path d="M13.9058 14.6945L15.0021 12.501L16.6695 10L10 8.33264L3.33057 10L4.99793 12.501L5.73073 14.5769" stroke="#044752" stroke-width="1.5" stroke-linecap="round" stroke-linejoin="round"/>
<path d="M2.49683 14.5018C3.41387 14.085 4.58103 14.085 5.49808 14.5018C6.41513 14.9187 7.58228 14.9187 8.49933 14.5018C9.41638 14.085 10.5835 14.085 11.5006 14.5018C12.4176 14.9187 13.5848 14.9187 14.5018 14.5018C15.4189 14.085 16.586 14.085 17.5031 14.5018" stroke="#044752" stroke-width="1.5" stroke-linecap="round" stroke-linejoin="round"/>
<path d="M5.49805 17.1906C6.4151 17.6074 7.58225 17.6074 8.4993 17.1906C9.41635 16.7737 10.5835 16.7737 11.5005 17.1906C12.4176 17.6074 13.5847 17.6074 14.5018 17.1906" stroke="#044752" stroke-width="1.5" stroke-linecap="round" stroke-linejoin="round"/>
</svg>
